<?xml version="1.0" encoding="utf-8"?>
<svg xmlns="http://www.w3.org/2000/svg" viewBox="254.739 200.772 59.883 59.883" width="59.883px" height="59.883px">
  <rect width="59.883" height="59.883" rx="12" fill="#181818" x="254.739" y="200.772" style=""/>
  <path d="M 258.066 230.713 C 264.719 250.674 271.373 210.752 278.027 230.713 C 284.68 250.674 291.334 250.674 297.988 230.713 C 304.641 210.752 304.641 210.752 311.295 230.713" stroke="red" stroke-width="2" fill="none" style=""/>
  <g stroke-width="1.5" fill="none" transform="matrix(0.6653640270233154, 0, 0, 0.6653640270233154, 254.73900220899282, 200.7720061655641)" style="">
    <path d="M5 45 C15 74, 25 16, 35 45 S55 74, 65 45 S75 16, 85 45" stroke="rgba(255,0,0,0.9)"/>
    <path d="M5 45 C15 73, 25 17, 35 45 S55 73, 65 45 S75 17, 85 45" stroke="rgba(255,0,0,0.85)"/>
    <path d="M5 45 C15 72, 25 18, 35 45 S55 72, 65 45 S75 18, 85 45" stroke="rgba(255,0,0,0.8)"/>
    <path d="M5 45 C15 71, 25 19, 35 45 S55 71, 65 45 S75 19, 85 45" stroke="rgba(255,0,0,0.75)"/>
    <path d="M5 45 C15 70, 25 20, 35 45 S55 70, 65 45 S75 20, 85 45" stroke="rgba(255,0,0,0.7)"/>
    <path d="M5 45 C15 69, 25 21, 35 45 S55 69, 65 45 S75 21, 85 45" stroke="rgba(255,0,0,0.65)"/>
    <path d="M5 45 C15 68, 25 22, 35 45 S55 68, 65 45 S75 22, 85 45" stroke="rgba(255,0,0,0.6)"/>
    <path d="M5 45 C15 67, 25 23, 35 45 S55 67, 65 45 S75 23, 85 45" stroke="rgba(255,0,0,0.55)"/>
    <path d="M5 45 C15 66, 25 24, 35 45 S55 66, 65 45 S75 24, 85 45" stroke="rgba(255,0,0,0.5)"/>
    <path d="M5 45 C15 65, 25 25, 35 45 S55 65, 65 45 S75 25, 85 45" stroke="rgba(255,0,0,0.45)"/>
    <path d="M5 45 C15 64, 25 26, 35 45 S55 64, 65 45 S75 26, 85 45" stroke="rgba(255,0,0,0.4)"/>
    <path d="M5 45 C15 63, 25 27, 35 45 S55 63, 65 45 S75 27, 85 45" stroke="rgba(255,0,0,0.35)"/>
    <path d="M5 45 C15 62, 25 28, 35 45 S55 62, 65 45 S75 28, 85 45" stroke="rgba(255,0,0,0.3)"/>
    <path d="M5 45 C15 61, 25 29, 35 45 S55 61, 65 45 S75 29, 85 45" stroke="rgba(255,0,0,0.25)"/>
    <path d="M5 45 C15 60, 25 30, 35 45 S55 60, 65 45 S75 30, 85 45" stroke="rgba(255,0,0,0.2)"/>
    <path d="M5 45 C15 59, 25 31, 35 45 S55 59, 65 45 S75 31, 85 45" stroke="rgba(255,0,0,0.15)"/>
    <path d="M5 45 C15 58, 25 32, 35 45 S55 58, 65 45 S75 32, 85 45" stroke="rgba(255,0,0,0.1)"/>
  </g>
</svg>